<svg width="16" height="16" viewBox="0 0 16 16" fill="none" xmlns="http://www.w3.org/2000/svg">
<g clip-path="url(#clip0_2055_4691)">
<path d="M5.61695 4.7934L7.38495 1.2574C7.58495 0.849404 8.07295 0.681404 8.48095 0.889404C8.64095 0.969404 8.76895 1.1054 8.84895 1.2654L10.5129 4.6734C10.6489 4.9454 10.9129 5.1374 11.2169 5.1774L14.7049 5.5934C15.1769 5.6574 15.5209 6.0894 15.4649 6.5694C15.4409 6.7614 15.3529 6.9454 15.2089 7.0894L12.4489 9.8254C12.3369 9.9294 12.2889 10.0894 12.3049 10.2494L12.7609 13.9374C12.8329 14.4654 12.4569 14.9534 11.9369 15.0174C11.7369 15.0414 11.5369 15.0014 11.3609 14.9054L8.44895 13.3054C8.24095 13.1934 7.98495 13.1854 7.76895 13.2974L4.75295 14.8574C4.32895 15.0734 3.80895 14.9054 3.59295 14.4734C3.50495 14.3134 3.48095 14.1294 3.50495 13.9534L3.74495 12.2574C3.86495 11.4254 4.37695 10.7134 5.11295 10.3294L8.46495 8.6094C8.55295 8.5614 8.58495 8.4494 8.54495 8.3614C8.50495 8.2894 8.43295 8.2494 8.35295 8.2654L4.25695 8.8574C3.63295 8.9454 2.99295 8.7694 2.50495 8.3614L1.13695 7.2414C0.744948 6.9214 0.688948 6.3454 1.00095 5.9454C1.15295 5.7694 1.36095 5.6494 1.59295 5.6174L5.09695 5.1614C5.32095 5.1374 5.51295 4.9934 5.61695 4.7934Z" fill="white"/>
</g>
<defs>
<clipPath id="clip0_2055_4691">
<rect width="16" height="16" fill="white"/>
</clipPath>
</defs>
</svg>
