<svg xmlns="http://www.w3.org/2000/svg" width="36" height="54" viewBox="0 0 36 54" fill="none">
  <path d="M3.57639 18.704C3.86269 18.704 4.15046 18.6066 4.38629 18.4076C4.91659 17.9599 4.98382 17.1669 4.53604 16.6368C3.23165 15.0918 2.51348 13.1256 2.51348 11.1003C2.51348 6.36529 6.3657 2.51327 11.1005 2.51327C15.8353 2.51327 19.6875 6.36529 19.6875 11.1003C19.6875 12.4214 19.396 13.6877 18.8211 14.8648C18.5163 15.4885 18.7748 16.2408 19.3985 16.5453C20.022 16.8509 20.7745 16.5914 21.079 15.9679C21.8234 14.4444 22.2006 12.8068 22.2006 11.1003C22.2006 4.97942 17.2212 0 11.1003 0C4.97942 0 0 4.97942 0 11.1003C0 13.7183 0.928864 16.2603 2.61527 18.2579C2.86409 18.5524 3.21908 18.704 3.57639 18.704Z" fill="white"/>
  <path d="M34.7504 29.6912C33.9407 24.9034 30.4933 24.2527 29.0084 24.1991C28.588 24.1838 28.205 23.9626 27.9796 23.6076C26.8555 21.8366 25.3312 21.3706 24.0394 21.3706C23.448 21.3704 22.9055 21.468 22.4718 21.5827C22.3444 21.6163 22.2148 21.6328 22.0866 21.6328C21.6304 21.6328 21.1908 21.4246 20.9163 21.0441C19.8104 19.512 18.3672 19.0977 17.13 19.0977C16.7991 19.0977 16.4828 19.1275 16.1919 19.1731C16.1142 19.1855 16.0372 19.1914 15.9615 19.1914C15.1699 19.1914 14.502 18.5484 14.5009 17.728L14.4904 8.87144C14.4875 6.58289 12.7711 5.43935 11.0548 5.43935C9.33508 5.43935 7.61538 6.58687 7.61831 8.87982C7.62292 12.7245 7.63695 24.2722 7.64093 27.7516C7.64177 28.3397 7.29012 28.871 6.74767 29.0979C-0.0677042 31.9467 8.34842 44.726 9.85575 46.9161C10.0028 47.1298 10.0899 47.3775 10.1094 47.6362L10.4778 52.5917C10.5352 53.3562 11.1723 54 11.939 54C11.9397 54 11.9403 54 11.9409 54L28.4077 53.9269C29.1426 53.9259 29.763 53.3547 29.8587 52.6261L30.5293 47.5047C30.5578 47.2887 30.6361 47.0747 30.7543 46.8916C35.155 40.0895 35.5008 34.129 34.7504 29.6912Z" fill="white"/>
</svg>